HIERARCHY
ROOT Hips
{
	OFFSET 0.00000 0.00000 0.00000
	CHANNELS 6 Xposition Yposition Zposition Zrotation Yrotation Xrotation 
	JOINT LHipJoint
	{
		OFFSET 0 0 0
		CHANNELS 3 Zrotation Yrotation Xrotation
		JOINT LeftUpLeg
		{
			OFFSET 1.61328 -1.70571 0.84375
			CHANNELS 3 Zrotation Yrotation Xrotation
			JOINT LeftLeg
			{
				OFFSET 2.32400 -6.38513 0.00000
				CHANNELS 3 Zrotation Yrotation Xrotation
				JOINT LeftFoot
				{
					OFFSET 2.58843 -7.11166 0.00000
					CHANNELS 3 Zrotation Yrotation Xrotation
					JOINT LeftToeBase
					{
						OFFSET 0.17200 -0.47257 2.47970
						CHANNELS 3 Zrotation Yrotation Xrotation
						End Site
						{
							OFFSET 0.00000 -0.00000 1.26912
						}
					}
				}
			}
		}
	}
	JOINT RHipJoint
	{
		OFFSET 0 0 0
		CHANNELS 3 Zrotation Yrotation Xrotation
		JOINT RightUpLeg
		{
			OFFSET -1.49930 -1.70570 0.84375
			CHANNELS 3 Zrotation Yrotation Xrotation
			JOINT RightLeg
			{
				OFFSET -2.30458 -6.33178 0.00000
				CHANNELS 3 Zrotation Yrotation Xrotation
				JOINT RightFoot
				{
					OFFSET -2.62261 -7.20556 0.00000
					CHANNELS 3 Zrotation Yrotation Xrotation
					JOINT RightToeBase
					{
						OFFSET -0.18709 -0.51403 2.51340
						CHANNELS 3 Zrotation Yrotation Xrotation
						End Site
						{
							OFFSET -0.00000 -0.00000 1.28858
						}
					}
				}
			}
		}
	}
	JOINT LowerBack
	{
		OFFSET 0 0 0
		CHANNELS 3 Zrotation Yrotation Xrotation
		JOINT Spine
		{
			OFFSET -0.03798 2.19274 -0.19881
			CHANNELS 3 Zrotation Yrotation Xrotation
			JOINT Spine1
			{
				OFFSET -0.00024 2.19460 0.05248
				CHANNELS 3 Zrotation Yrotation Xrotation
				JOINT Neck
				{
					OFFSET 0 0 0
					CHANNELS 3 Zrotation Yrotation Xrotation
					JOINT Neck1
					{
						OFFSET -0.00746 1.82323 0.17286
						CHANNELS 3 Zrotation Yrotation Xrotation
						JOINT Head
						{
							OFFSET 0.11826 1.82121 -0.27841
							CHANNELS 3 Zrotation Yrotation Xrotation
							End Site
							{
								OFFSET 0.03496 1.85543 -0.11495
							}
						}
					}
				}
				JOINT LeftShoulder
				{
					OFFSET 0 0 0
					CHANNELS 3 Zrotation Yrotation Xrotation
					JOINT LeftArm
					{
						OFFSET 3.71926 0.78840 0.25473
						CHANNELS 3 Zrotation Yrotation Xrotation
						JOINT LeftForeArm
						{
							OFFSET 5.37587 -0.00000 0.00000
							CHANNELS 3 Zrotation Yrotation Xrotation
							JOINT LeftHand
							{
								OFFSET 3.35977 -0.00000 0.00000
								CHANNELS 3 Zrotation Yrotation Xrotation
								JOINT LeftFingerBase
								{
									OFFSET 0 0 0
									CHANNELS 3 Zrotation Yrotation Xrotation
									JOINT LeftHandIndex1
									{
										OFFSET 0.56186 -0.00000 0.00000
										CHANNELS 3 Zrotation Yrotation Xrotation
										End Site
										{
											OFFSET 0.45299 -0.00000 0.00000
										}
									}
								}
								JOINT LThumb
								{
									OFFSET 0 0 0
									CHANNELS 3 Zrotation Yrotation Xrotation
									End Site
									{
										OFFSET 0.45990 -0.00000 0.45990
									}
								}
							}
						}
					}
				}
				JOINT RightShoulder
				{
					OFFSET 0 0 0
					CHANNELS 3 Zrotation Yrotation Xrotation
					JOINT RightArm
					{
						OFFSET -3.65136 0.56074 0.01624
						CHANNELS 3 Zrotation Yrotation Xrotation
						JOINT RightForeArm
						{
							OFFSET -5.22819 -0.00000 0.00000
							CHANNELS 3 Zrotation Yrotation Xrotation
							JOINT RightHand
							{
								OFFSET -3.40764 -0.00000 0.00000
								CHANNELS 3 Zrotation Yrotation Xrotation
								JOINT RightFingerBase
								{
									OFFSET 0 0 0
									CHANNELS 3 Zrotation Yrotation Xrotation
									JOINT RightHandIndex1
									{
										OFFSET -0.58325 -0.00000 0.00000
										CHANNELS 3 Zrotation Yrotation Xrotation
										End Site
										{
											OFFSET -0.47024 -0.00000 0.00000
										}
									}
								}
								JOINT RThumb
								{
									OFFSET 0 0 0
									CHANNELS 3 Zrotation Yrotation Xrotation
									End Site
									{
										OFFSET -0.47742 -0.00000 0.47742
									}
								}
							}
						}
					}
				}
			}
		}
	}
}
MOTION
Frames: 10
Frame Time: .0083333
30.3164 17.0480 -7.4844 0.3053 -81.4089 1.6419 0.0000 0.0000 0.0000 -13.6335 6.0889 -34.2431 8.9360 16.7664 55.8686 0.0613 0.2377 -4.7695 0.1302 -2.3261 -6.4079 0.0000 0.0000 0.0000 23.4117 -1.9187 -0.3626 -1.3098 -7.2496 20.4568 -1.5366 -3.0012 -24.6614 -0.8521 -5.8872 16.4576 2.7986 0.1942 0.4579 1.0517 0.3040 -1.7791 -0.4958 0.1070 -2.0728 0.2874 0.7543 -5.0923 5.1317 0.5878 6.0389 1.6354 0.4553 2.8095 0.0000 0.0000 0.0000 -78.3281 -0.1886 30.0870 25.6476 -36.8586 -8.6754 -0.0000 0.0000 -12.5880 17.2536 19.2459 5.8452 -7.1250 0.0000 -0.0000 -10.8969 49.7472 -1.2890 0.0000 0.0000 0.0000 81.1697 -0.3233 23.1007 -24.9004 36.1020 -8.2311 0.0000 0.0000 4.1169 -22.0458 0.4954 -0.2006 7.1250 -0.0000 -0.0000 3.5433 -29.4368 1.3468
30.2555 17.0427 -7.4712 -0.1448 -81.3695 2.1233 0.0000 0.0000 0.0000 -13.8794 6.0912 -34.4194 8.4958 16.4721 54.3296 0.0723 -0.6459 -4.8880 0.1650 -2.6171 -7.2146 0.0000 0.0000 0.0000 23.4709 -2.0166 -0.1443 -1.3003 -7.2243 20.3817 -1.5416 -3.0135 -24.7047 -0.8208 -5.7806 16.1492 2.8757 0.2192 0.4174 1.0666 0.3373 -1.8050 -0.5243 0.1219 -2.0755 0.2493 0.7509 -5.0976 5.1462 0.5842 6.0622 1.6473 0.4536 2.8185 0.0000 0.0000 0.0000 -78.1951 -0.3108 29.9900 25.7673 -36.9780 -8.7473 -0.0000 0.0000 -12.5977 17.2507 19.3322 5.8692 -7.1250 0.0000 -0.0000 -10.9289 49.8341 -1.3164 0.0000 0.0000 0.0000 81.1757 -0.3442 23.1270 -24.9102 36.1121 -8.2369 0.0000 0.0000 4.1083 -22.0656 0.5001 -0.2027 7.1250 -0.0000 -0.0000 3.5275 -29.4318 1.3412
30.1937 17.0378 -7.4568 -0.5566 -81.3521 2.5662 0.0000 0.0000 0.0000 -14.1291 6.0933 -34.4979 8.0277 16.1396 52.6622 0.0771 -1.6084 -4.9315 0.2035 -2.9043 -8.0126 0.0000 0.0000 0.0000 23.5221 -2.0914 0.0704 -1.2940 -7.2075 20.3315 -1.5460 -3.0332 -24.7470 -0.7878 -5.6660 15.8185 2.9433 0.2468 0.3692 1.0789 0.3733 -1.8298 -0.5500 0.1384 -2.0725 0.2056 0.7472 -5.1073 5.1688 0.5794 6.0935 1.6629 0.4516 2.8313 -0.0000 0.0000 0.0000 -78.0654 -0.4403 29.8902 25.8798 -37.0898 -8.8151 -0.0000 0.0000 -12.6048 17.2531 19.4308 5.8986 -7.1250 0.0000 -0.0000 -10.9603 49.9342 -1.3475 -0.0000 0.0000 0.0000 81.1871 -0.3654 23.1499 -24.9173 36.1193 -8.2411 0.0000 0.0000 4.1103 -22.0775 0.5018 -0.2035 7.1250 -0.0000 -0.0000 3.5182 -29.4300 1.3378
30.1309 17.0335 -7.4413 -0.9461 -81.3622 2.9827 0.0000 0.0000 0.0000 -14.3756 6.1006 -34.4739 7.5372 15.7681 50.8782 0.0748 -2.6210 -4.9161 0.2391 -3.1467 -8.6876 0.0000 0.0000 0.0000 23.5663 -2.1480 0.2836 -1.2908 -7.1988 20.3056 -1.5489 -3.0566 -24.7794 -0.7524 -5.5402 15.4559 3.0019 0.2786 0.3144 1.0894 0.4144 -1.8505 -0.5726 0.1577 -2.0615 0.1593 0.7426 -5.1201 5.1936 0.5735 6.1263 1.6798 0.4491 2.8451 0.0000 0.0000 0.0000 -77.9396 -0.5805 29.7869 25.9824 -37.1913 -8.8770 -0.0000 0.0000 -12.6103 17.2526 19.5268 5.9263 -7.1250 0.0000 -0.0000 -10.9937 50.0312 -1.3781 0.0000 0.0000 0.0000 81.2034 -0.3824 23.1708 -24.9187 36.1208 -8.2419 0.0000 0.0000 4.1199 -22.0812 0.4999 -0.2028 7.1250 -0.0000 -0.0000 3.5153 -29.4320 1.3365
30.0670 17.0294 -7.4246 -1.3279 -81.4031 3.3820 0.0000 0.0000 0.0000 -14.6171 6.1214 -34.3468 7.0320 15.3588 48.9952 0.0650 -3.6405 -4.8564 0.2745 -3.3700 -9.3107 0.0000 0.0000 0.0000 23.6021 -2.1981 0.4996 -1.2902 -7.1971 20.3005 -1.5508 -3.0705 -24.8006 -0.7173 -5.4122 15.0879 3.0544 0.3156 0.2567 1.0974 0.4621 -1.8665 -0.5944 0.1805 -2.0438 0.1144 0.7367 -5.1303 5.2170 0.5656 6.1606 1.6959 0.4455 2.8591 -0.0000 -0.0000 0.0000 -77.8132 -0.7248 29.6889 26.0786 -37.2863 -8.9352 -0.0000 0.0000 -12.6194 17.2546 19.6239 5.9551 -7.1250 0.0000 -0.0000 -11.0253 50.1295 -1.4091 -0.0000 -0.0000 0.0000 81.2250 -0.3975 23.1939 -24.9143 36.1162 -8.2393 0.0000 0.0000 4.1347 -22.0774 0.4942 -0.2004 7.1250 -0.0000 -0.0000 3.5186 -29.4382 1.3372
30.0020 17.0260 -7.4067 -1.7300 -81.4763 3.7919 0.0000 0.0000 0.0000 -14.8455 6.1518 -34.1193 6.5205 14.9144 47.0366 0.0488 -4.6204 -4.7664 0.3053 -3.5526 -9.8213 0.0000 0.0000 0.0000 23.6302 -2.2530 0.7198 -1.2909 -7.1992 20.3067 -1.5505 -3.0706 -24.7985 -0.6819 -5.2796 14.7079 3.1056 0.3574 0.1959 1.1027 0.5159 -1.8786 -0.6182 0.2065 -2.0199 0.0715 0.7304 -5.1398 5.2421 0.5565 6.2029 1.7122 0.4416 2.8756 0.0000 -0.0000 0.0000 -77.6860 -0.8687 29.5919 26.1692 -37.3753 -8.9902 -0.0000 0.0000 -12.6314 17.2503 19.7180 5.9808 -7.1250 0.0000 -0.0000 -11.0621 50.2239 -1.4398 0.0000 -0.0000 0.0000 81.2530 -0.4037 23.2194 -24.8957 36.0972 -8.2284 0.0000 0.0000 4.1549 -22.0647 0.4903 -0.1987 7.1250 -0.0000 -0.0000 3.5286 -29.4424 1.3407
29.9356 17.0231 -7.3873 -2.1599 -81.5804 4.2234 0.0000 0.0000 0.0000 -15.0596 6.1871 -33.7996 6.0118 14.4398 45.0290 0.0284 -5.5039 -4.6645 0.3323 -3.7050 -10.2481 0.0000 0.0000 0.0000 23.6483 -2.3158 0.9466 -1.2918 -7.2016 20.3140 -1.5476 -3.0515 -24.7676 -0.6474 -5.1470 14.3283 3.1575 0.4032 0.1280 1.1050 0.5746 -1.8899 -0.6456 0.2351 -1.9911 0.0405 0.7239 -5.1387 5.2586 0.5468 6.2485 1.7235 0.4373 2.8913 0.0000 0.0000 0.0000 -77.5577 -1.0047 29.4957 26.2552 -37.4596 -9.0424 -0.0000 0.0000 -12.6443 17.2340 19.8007 5.9987 -7.1250 0.0000 -0.0000 -11.1067 50.3048 -1.4680 0.0000 0.0000 0.0000 81.2862 -0.4076 23.2533 -24.8668 36.0675 -8.2114 0.0000 0.0000 4.1764 -22.0424 0.4930 -0.1996 7.1250 -0.0000 -0.0000 3.5460 -29.4394 1.3476
29.8679 17.0211 -7.3666 -2.6332 -81.7133 4.6948 0.0000 0.0000 0.0000 -15.2547 6.2193 -33.3984 5.5154 13.9417 43.0042 0.0080 -6.2397 -4.5838 0.3585 -3.8466 -10.6454 0.0000 0.0000 0.0000 23.6570 -2.3819 1.1865 -1.2914 -7.2003 20.3102 -1.5415 -3.0155 -24.7053 -0.6151 -5.0194 13.9638 3.2099 0.4519 0.0489 1.1058 0.6365 -1.9020 -0.6745 0.2652 -1.9565 0.0191 0.7178 -5.1290 5.2692 0.5367 6.3031 1.7312 0.4327 2.9084 0.0000 -0.0000 0.0000 -77.4298 -1.1291 29.4019 26.3388 -37.5414 -9.0933 -0.0000 0.0000 -12.6591 17.2129 19.8695 6.0108 -7.1250 0.0000 -0.0000 -11.1512 50.3709 -1.4923 0.0000 -0.0000 0.0000 81.3223 -0.4075 23.2954 -24.8263 36.0260 -8.1875 0.0000 0.0000 4.1989 -22.0136 0.4981 -0.2014 7.1250 -0.0000 -0.0000 3.5683 -29.4339 1.3566
29.7985 17.0200 -7.3442 -3.1703 -81.8698 5.2316 0.0000 0.0000 0.0000 -15.4269 6.2359 -32.9309 5.0397 13.4284 40.9941 -0.0083 -6.7901 -4.5496 0.3902 -4.0110 -11.1076 0.0000 0.0000 0.0000 23.6587 -2.4457 1.4443 -1.2879 -7.1910 20.2826 -1.5318 -2.9722 -24.6118 -0.5840 -4.8931 13.6040 3.2658 0.5012 -0.0445 1.1064 0.6985 -1.9179 -0.7054 0.2954 -1.9177 0.0078 0.7135 -5.1185 5.2729 0.5280 6.3750 1.7352 0.4291 2.9312 -0.0000 -0.0000 0.0000 -77.3046 -1.2429 29.3056 26.4172 -37.6177 -9.1411 -0.0000 0.0000 -12.6714 17.1766 19.9309 6.0150 -7.1250 0.0000 -0.0000 -11.2082 50.4270 -1.5157 -0.0000 -0.0000 0.0000 81.3581 -0.4117 23.3510 -24.7850 35.9834 -8.1632 0.0000 0.0000 4.2178 -21.9793 0.5053 -0.2039 7.1250 -0.0000 -0.0000 3.5950 -29.4262 1.3674
29.7275 17.0201 -7.3202 -3.7879 -82.0447 5.8529 0.0000 0.0000 0.0000 -15.5705 6.2273 -32.4093 4.5929 12.9102 39.0331 -0.0171 -7.1292 -4.5836 0.4283 -4.2002 -11.6405 0.0000 0.0000 0.0000 23.6560 -2.4978 1.7211 -1.2815 -7.1739 20.2317 -1.5187 -2.9237 -24.4898 -0.5547 -4.7707 13.2557 3.3258 0.5499 -0.1538 1.1082 0.7590 -1.9382 -0.7369 0.3247 -1.8742 0.0016 0.7099 -5.1093 5.2755 0.5188 6.4631 1.7381 0.4255 2.9597 -0.0000 -0.0000 0.0000 -77.1843 -1.3469 29.2072 26.4917 -37.6901 -9.1866 -0.0000 0.0000 -12.6817 17.1164 19.9767 6.0059 -7.1250 0.0000 -0.0000 -11.2826 50.4635 -1.5362 -0.0000 -0.0000 0.0000 81.3912 -0.4254 23.4206 -24.7528 35.9502 -8.1443 0.0000 0.0000 4.2288 -21.9429 0.5059 -0.2038 7.1250 -0.0000 -0.0000 3.6235 -29.4256 1.3783
